<svg xmlns="http://www.w3.org/2000/svg" width="192" height="192" viewBox="0 0 192 192" fill="none">
  <rect width="192" height="192" rx="32" fill="#1A1A2E"/>
  <path d="M53.4805 117V74.4H76.0405C80.1205 74.4 83.6005 75.1 86.4805 76.5C89.3605 77.9 91.5605 79.9 93.0805 82.5C94.6005 85.1 95.3605 88.2 95.3605 91.8C95.3605 95.4 94.6005 98.5 93.0805 101.1C91.5605 103.7 89.3605 105.7 86.4805 107.1C83.6005 108.5 80.1205 109.2 76.0405 109.2H61.8805V99.6H74.0405C76.1605 99.6 77.8805 99.3 79.2005 98.7C80.5205 98.1 81.4805 97.2 82.0805 96C82.6805 94.8 82.9805 93.4 82.9805 91.8C82.9805 90.2 82.6805 88.8 82.0805 87.6C81.4805 86.4 80.5205 85.5 79.2005 84.9C77.8805 84.3 76.1605 84 74.0405 84H65.8805V117H53.4805Z" fill="#6930C3"/>
  <path d="M101.84 117V74.4H138.64V84H114.24V91.2H135.64V100.8H114.24V107.4H138.64V117H101.84Z" fill="#5E60CE"/>
  <path d="M110.24 134.6V127H130.24V134.6H110.24Z" fill="#5E60CE"/>
  <path d="M65.28 134.6V127H85.28V134.6H65.28Z" fill="#6930C3"/>
</svg> 