<svg xmlns="http://www.w3.org/2000/svg" width="512" height="512" viewBox="0 0 512 512" fill="none">
  <rect width="512" height="512" rx="64" fill="#1A1A2E"/>
  <path d="M142.695 312V204.8H202.295C212.695 204.8 221.495 206.6 228.695 210.2C235.895 213.8 241.295 218.8 244.895 225.2C248.495 231.6 250.295 239.2 250.295 248C250.295 256.8 248.495 264.4 244.895 270.8C241.295 277.2 235.895 282.2 228.695 285.8C221.495 289.4 212.695 291.2 202.295 291.2H164.295V268H198.295C203.495 268 207.695 267.2 210.895 265.6C214.095 264 216.495 261.6 218.095 258.4C219.695 255.2 220.495 251.8 220.495 248C220.495 244.2 219.695 240.8 218.095 237.6C216.495 234.4 214.095 232 210.895 230.4C207.695 228.8 203.495 228 198.295 228H171.895V312H142.695Z" fill="#6930C3"/>
  <path d="M271.57 312V204.8H369.97V228H300.77V246H363.97V269.2H300.77V288.8H369.97V312H271.57Z" fill="#5E60CE"/>
  <path d="M293.97 369.6V351H349.97V369.6H293.97Z" fill="#5E60CE"/>
  <path d="M173.41 369.6V351H229.41V369.6H173.41Z" fill="#6930C3"/>
</svg> 