<?xml version="1.0" encoding="UTF-8"?>
<svg width="400" height="400" viewBox="0 0 400 400" fill="none" xmlns="http://www.w3.org/2000/svg">
  <!-- Gradientes -->
  <defs>
    <linearGradient id="challengerGradient" x1="200" y1="0" x2="200" y2="400" gradientUnits="userSpaceOnUse">
      <stop offset="0" stop-color="#E879F9"/>
      <stop offset="1" stop-color="#C026D3"/>
    </linearGradient>
    <linearGradient id="challengerShine" x1="0" y1="0" x2="400" y2="400" gradientUnits="userSpaceOnUse">
      <stop offset="0" stop-color="#F0ABFC"/>
      <stop offset="1" stop-color="#E879F9"/>
    </linearGradient>
    <radialGradient id="challengerGlow" cx="200" cy="200" r="200" gradientUnits="userSpaceOnUse">
      <stop offset="0.7" stop-color="#4A044E" stop-opacity="0"/>
      <stop offset="1" stop-color="#86198F" stop-opacity="0.5"/>
    </radialGradient>
    <filter id="glow" x="-50%" y="-50%" width="200%" height="200%">
      <feGaussianBlur stdDeviation="5" result="blur"/>
      <feComposite in="SourceGraphic" in2="blur" operator="over"/>
    </filter>
    <filter id="starGlow" x="-100%" y="-100%" width="300%" height="300%">
      <feGaussianBlur stdDeviation="3" result="blur"/>
      <feComposite in="SourceGraphic" in2="blur" operator="over"/>
    </filter>
  </defs>
  
  <!-- Círculo base com resplandor -->
  <circle cx="200" cy="200" r="200" fill="url(#challengerGlow)" opacity="0.4"/>
  <circle cx="200" cy="200" r="190" stroke="url(#challengerGradient)" stroke-width="15" fill="none" filter="url(#glow)"/>
  
  <!-- Estrelas decorativas -->
  <path d="M200 5 L205 15 L215 15 L207 23 L210 35 L200 28 L190 35 L193 23 L185 15 L195 15 Z" fill="#F0ABFC" filter="url(#starGlow)"/>
  <path d="M200 395 L205 385 L215 385 L207 377 L210 365 L200 372 L190 365 L193 377 L185 385 L195 385 Z" fill="#F0ABFC" filter="url(#starGlow)"/>
  <path d="M5 200 L15 195 L15 185 L23 193 L35 190 L28 200 L35 210 L23 207 L15 215 L15 205 Z" fill="#F0ABFC" filter="url(#starGlow)"/>
  <path d="M395 200 L385 195 L385 185 L377 193 L365 190 L372 200 L365 210 L377 207 L385 215 L385 205 Z" fill="#F0ABFC" filter="url(#starGlow)"/>
  
  <!-- Arcos decorativos -->
  <path d="M80 50 A180 180 0 0 1 320 50" stroke="url(#challengerShine)" stroke-width="8" fill="none" filter="url(#glow)"/>
  <path d="M80 350 A180 180 0 0 0 320 350" stroke="url(#challengerShine)" stroke-width="8" fill="none" filter="url(#glow)"/>
  
  <!-- Padrões tipo chama -->
  <path d="M120 60 Q140 90 120 120 Q100 150 120 180 Q140 210 120 240" stroke="url(#challengerShine)" stroke-width="3" fill="none"/>
  <path d="M280 60 Q260 90 280 120 Q300 150 280 180 Q260 210 280 240" stroke="url(#challengerShine)" stroke-width="3" fill="none"/>
  
  <!-- Detalhes diagonais -->
  <path d="M50 50 L90 90" stroke="#F0ABFC" stroke-width="6" stroke-linecap="round" filter="url(#glow)"/>
  <path d="M350 50 L310 90" stroke="#F0ABFC" stroke-width="6" stroke-linecap="round" filter="url(#glow)"/>
  <path d="M50 350 L90 310" stroke="#F0ABFC" stroke-width="6" stroke-linecap="round" filter="url(#glow)"/>
  <path d="M350 350 L310 310" stroke="#F0ABFC" stroke-width="6" stroke-linecap="round" filter="url(#glow)"/>
  
  <!-- Emblema central -->
  <g transform="translate(150, 150)">
    <path d="M50 0 L100 20 L90 80 L50 100 L10 80 L0 20 Z" fill="#701A75" stroke="#C026D3" stroke-width="3"/>
    <path d="M50 20 L80 35 L70 75 L50 90 L30 75 L20 35 Z" fill="#A21CAF" stroke="#D946EF" stroke-width="2"/>
    <path d="M50 40 L65 50 L60 70 L50 80 L40 70 L35 50 Z" fill="#E879F9" filter="url(#starGlow)"/>
    <circle cx="50" cy="50" r="10" fill="white" opacity="0.5" filter="url(#starGlow)"/>
  </g>
</svg> 