<?xml version="1.0" encoding="UTF-8"?>
<svg width="200" height="200" viewBox="0 0 200 200" fill="none" xmlns="http://www.w3.org/2000/svg">
  <!-- Gradientes -->
  <defs>
    <linearGradient id="diamondGradient" x1="100" y1="0" x2="100" y2="200" gradientUnits="userSpaceOnUse">
      <stop offset="0" stop-color="#60A5FA"/>
      <stop offset="1" stop-color="#3B82F6"/>
    </linearGradient>
    <linearGradient id="diamondShine" x1="0" y1="0" x2="200" y2="200" gradientUnits="userSpaceOnUse">
      <stop offset="0" stop-color="#93C5FD"/>
      <stop offset="1" stop-color="#60A5FA"/>
    </linearGradient>
    <filter id="glow" x="-10%" y="-10%" width="120%" height="120%">
      <feGaussianBlur stdDeviation="2" result="blur"/>
      <feComposite in="SourceGraphic" in2="blur" operator="over"/>
    </filter>
  </defs>
  
  <!-- Círculo base -->
  <circle cx="100" cy="100" r="95" stroke="url(#diamondGradient)" stroke-width="7" fill="none"/>
  
  <!-- Detalhes decorativos de diamante -->
  <path d="M100 5 L110 15 L100 25 L90 15 Z" fill="#93C5FD" filter="url(#glow)"/>
  <path d="M100 195 L110 185 L100 175 L90 185 Z" fill="#93C5FD" filter="url(#glow)"/>
  <path d="M5 100 L15 110 L25 100 L15 90 Z" fill="#93C5FD" filter="url(#glow)"/>
  <path d="M195 100 L185 110 L175 100 L185 90 Z" fill="#93C5FD" filter="url(#glow)"/>
  
  <!-- Arcos decorativos -->
  <path d="M35 35 A90 90 0 0 1 165 35" stroke="url(#diamondShine)" stroke-width="3" fill="none"/>
  <path d="M35 165 A90 90 0 0 0 165 165" stroke="url(#diamondShine)" stroke-width="3" fill="none"/>
  
  <!-- Linhas decorativas diagonais -->
  <line x1="25" y1="25" x2="40" y2="40" stroke="#93C5FD" stroke-width="2" stroke-linecap="round" filter="url(#glow)"/>
  <line x1="175" y1="25" x2="160" y2="40" stroke="#93C5FD" stroke-width="2" stroke-linecap="round" filter="url(#glow)"/>
  <line x1="25" y1="175" x2="40" y2="160" stroke="#93C5FD" stroke-width="2" stroke-linecap="round" filter="url(#glow)"/>
  <line x1="175" y1="175" x2="160" y2="160" stroke="#93C5FD" stroke-width="2" stroke-linecap="round" filter="url(#glow)"/>
</svg> 