<?xml version="1.0" encoding="UTF-8"?>
<svg width="400" height="400" viewBox="0 0 400 400" fill="none" xmlns="http://www.w3.org/2000/svg">
  <!-- Gradientes e filtros -->
  <defs>
    <linearGradient id="masterGradient" x1="200" y1="0" x2="200" y2="400" gradientUnits="userSpaceOnUse">
      <stop offset="0" stop-color="#A855F7"/>
      <stop offset="1" stop-color="#7E22CE"/>
    </linearGradient>
    <linearGradient id="masterShine" x1="0" y1="0" x2="400" y2="400" gradientUnits="userSpaceOnUse">
      <stop offset="0" stop-color="#C084FC"/>
      <stop offset="1" stop-color="#A855F7"/>
    </linearGradient>
    <filter id="glow" x="-50%" y="-50%" width="200%" height="200%">
      <feGaussianBlur stdDeviation="4" result="blur"/>
      <feComposite in="SourceGraphic" in2="blur" operator="over"/>
    </filter>
  </defs>
  
  <!-- Círculo base -->
  <circle cx="200" cy="200" r="190" stroke="url(#masterGradient)" stroke-width="12" fill="none"/>
  
  <!-- Detalhes decorativos externos -->
  <path d="M170 15 L200 5 L230 15" stroke="#C084FC" stroke-width="4" stroke-linecap="round" filter="url(#glow)"/>
  <path d="M170 385 L200 395 L230 385" stroke="#C084FC" stroke-width="4" stroke-linecap="round" filter="url(#glow)"/>
  <path d="M15 170 L5 200 L15 230" stroke="#C084FC" stroke-width="4" stroke-linecap="round" filter="url(#glow)"/>
  <path d="M385 170 L395 200 L385 230" stroke="#C084FC" stroke-width="4" stroke-linecap="round" filter="url(#glow)"/>
  
  <!-- Pontos brilhantes -->
  <circle cx="200" cy="10" r="5" fill="#C084FC" filter="url(#glow)"/>
  <circle cx="200" cy="390" r="5" fill="#C084FC" filter="url(#glow)"/>
  <circle cx="10" cy="200" r="5" fill="#C084FC" filter="url(#glow)"/>
  <circle cx="390" cy="200" r="5" fill="#C084FC" filter="url(#glow)"/>
  
  <!-- Arcos decorativos -->
  <path d="M90 60 A160 160 0 0 1 310 60" stroke="url(#masterShine)" stroke-width="8" fill="none" stroke-dasharray="20 10"/>
  <path d="M90 340 A160 160 0 0 0 310 340" stroke="url(#masterShine)" stroke-width="8" fill="none" stroke-dasharray="20 10"/>
  
  <!-- Detalhes diagonais -->
  <path d="M60 60 L90 90" stroke="url(#masterShine)" stroke-width="5" stroke-linecap="round"/>
  <path d="M340 60 L310 90" stroke="url(#masterShine)" stroke-width="5" stroke-linecap="round"/>
  <path d="M60 340 L90 310" stroke="url(#masterShine)" stroke-width="5" stroke-linecap="round"/>
  <path d="M340 340 L310 310" stroke="url(#masterShine)" stroke-width="5" stroke-linecap="round"/>
  
  <!-- Emblema central -->
  <g transform="translate(150, 150)">
    <path d="M50 0 L100 30 L80 100 L20 100 L0 30 Z" fill="#7E22CE" stroke="#A855F7" stroke-width="3" opacity="0.5"/>
    <path d="M50 20 L80 40 L65 80 L35 80 L20 40 Z" fill="#A855F7" stroke="#C084FC" stroke-width="2"/>
    <circle cx="50" cy="50" r="15" fill="#C084FC" filter="url(#glow)"/>
  </g>
</svg> 