<?xml version="1.0" encoding="UTF-8"?>
<svg width="400" height="400" viewBox="0 0 400 400" fill="none" xmlns="http://www.w3.org/2000/svg">
  <!-- Gradientes -->
  <defs>
    <linearGradient id="goldGradient" x1="200" y1="0" x2="200" y2="400" gradientUnits="userSpaceOnUse">
      <stop offset="0" stop-color="#F59E0B"/>
      <stop offset="1" stop-color="#D97706"/>
    </linearGradient>
    <linearGradient id="goldShine" x1="0" y1="0" x2="400" y2="400" gradientUnits="userSpaceOnUse">
      <stop offset="0" stop-color="#FBBF24"/>
      <stop offset="1" stop-color="#F59E0B"/>
    </linearGradient>
    <filter id="glow" x="-50%" y="-50%" width="200%" height="200%">
      <feGaussianBlur stdDeviation="3" result="blur"/>
      <feComposite in="SourceGraphic" in2="blur" operator="over"/>
    </filter>
  </defs>
  
  <!-- Círculo base -->
  <circle cx="200" cy="200" r="190" stroke="url(#goldGradient)" stroke-width="10" fill="none"/>
  
  <!-- Detalhes decorativos -->
  <path d="M200 10 L210 30 L200 40 L190 30 Z" fill="#FBBF24" filter="url(#glow)"/>
  <path d="M200 390 L210 370 L200 360 L190 370 Z" fill="#FBBF24" filter="url(#glow)"/>
  <path d="M10 200 L30 210 L40 200 L30 190 Z" fill="#FBBF24" filter="url(#glow)"/>
  <path d="M390 200 L370 210 L360 200 L370 190 Z" fill="#FBBF24" filter="url(#glow)"/>
  
  <!-- Decorações adicionais -->
  <circle cx="125" cy="125" r="10" fill="none" stroke="url(#goldShine)" stroke-width="3"/>
  <circle cx="275" cy="125" r="10" fill="none" stroke="url(#goldShine)" stroke-width="3"/>
  <circle cx="125" cy="275" r="10" fill="none" stroke="url(#goldShine)" stroke-width="3"/>
  <circle cx="275" cy="275" r="10" fill="none" stroke="url(#goldShine)" stroke-width="3"/>
  
  <!-- Linhas decorativas -->
  <path d="M70 70 L100 100" stroke="url(#goldShine)" stroke-width="3" stroke-linecap="round"/>
  <path d="M300 70 L330 100" stroke="url(#goldShine)" stroke-width="3" stroke-linecap="round"/>
  <path d="M70 330 L100 300" stroke="url(#goldShine)" stroke-width="3" stroke-linecap="round"/>
  <path d="M300 330 L330 300" stroke="url(#goldShine)" stroke-width="3" stroke-linecap="round"/>
  
  <!-- Emblema central inferior -->
  <g transform="translate(170, 320)">
    <path d="M30 0 L55 15 L45 40 L15 40 L5 15 Z" fill="#F59E0B" stroke="#FBBF24" stroke-width="2"/>
    <circle cx="30" cy="20" r="8" fill="#FBBF24" stroke="#FCD34D" stroke-width="1"/>
    <path d="M20 15 L40 25" stroke="#FCD34D" stroke-width="1.5"/>
  </g>
</svg> 