<?xml version="1.0" encoding="UTF-8"?>
<svg width="400" height="400" viewBox="0 0 400 400" fill="none" xmlns="http://www.w3.org/2000/svg">
  <!-- Gradientes -->
  <defs>
    <linearGradient id="platinumGradient" x1="200" y1="0" x2="200" y2="400" gradientUnits="userSpaceOnUse">
      <stop offset="0" stop-color="#14B8A6"/>
      <stop offset="1" stop-color="#0D9488"/>
    </linearGradient>
    <linearGradient id="platinumShine" x1="0" y1="0" x2="400" y2="400" gradientUnits="userSpaceOnUse">
      <stop offset="0" stop-color="#2DD4BF"/>
      <stop offset="1" stop-color="#14B8A6"/>
    </linearGradient>
    <filter id="glow" x="-50%" y="-50%" width="200%" height="200%">
      <feGaussianBlur stdDeviation="3" result="blur"/>
      <feComposite in="SourceGraphic" in2="blur" operator="over"/>
    </filter>
  </defs>
  
  <!-- Círculo base -->
  <circle cx="200" cy="200" r="190" stroke="url(#platinumGradient)" stroke-width="12" fill="none"/>
  
  <!-- Detalhes decorativos -->
  <path d="M200 10 L215 30 L200 45 L185 30 Z" fill="#2DD4BF" filter="url(#glow)"/>
  <path d="M200 390 L215 370 L200 355 L185 370 Z" fill="#2DD4BF" filter="url(#glow)"/>
  <path d="M10 200 L30 185 L45 200 L30 215 Z" fill="#2DD4BF" filter="url(#glow)"/>
  <path d="M390 200 L370 185 L355 200 L370 215 Z" fill="#2DD4BF" filter="url(#glow)"/>
  
  <!-- Detalhes geométricos -->
  <rect x="180" y="30" width="40" height="5" rx="2" fill="#5EEAD4" transform="rotate(0 200 200)" filter="url(#glow)"/>
  <rect x="180" y="365" width="40" height="5" rx="2" fill="#5EEAD4" transform="rotate(0 200 200)" filter="url(#glow)"/>
  <rect x="30" y="180" width="40" height="5" rx="2" fill="#5EEAD4" transform="rotate(90 30 200)" filter="url(#glow)"/>
  <rect x="365" y="180" width="40" height="5" rx="2" fill="#5EEAD4" transform="rotate(90 365 200)" filter="url(#glow)"/>
  
  <!-- Arcos decorativos -->
  <path d="M100 60 A160 160 0 0 1 300 60" stroke="url(#platinumShine)" stroke-width="6" fill="none"/>
  <path d="M100 340 A160 160 0 0 0 300 340" stroke="url(#platinumShine)" stroke-width="6" fill="none"/>
  
  <!-- Emblema inferior -->
  <g transform="translate(160, 310)">
    <path d="M40 0 L70 20 L60 50 L20 50 L10 20 Z" fill="#0D9488" stroke="#14B8A6" stroke-width="2"/>
    <polygon points="40,15 50,25 40,35 30,25" fill="#2DD4BF" filter="url(#glow)"/>
  </g>
</svg> 