<?xml version="1.0" encoding="UTF-8"?>
<svg width="400" height="400" viewBox="0 0 400 400" fill="none" xmlns="http://www.w3.org/2000/svg">
  <!-- Gradientes -->
  <defs>
    <linearGradient id="silverGradient" x1="200" y1="0" x2="200" y2="400" gradientUnits="userSpaceOnUse">
      <stop offset="0" stop-color="#9CA3AF"/>
      <stop offset="1" stop-color="#6B7280"/>
    </linearGradient>
    <linearGradient id="silverShine" x1="0" y1="0" x2="400" y2="400" gradientUnits="userSpaceOnUse">
      <stop offset="0" stop-color="#D1D5DB"/>
      <stop offset="1" stop-color="#9CA3AF"/>
    </linearGradient>
    <filter id="glow" x="-50%" y="-50%" width="200%" height="200%">
      <feGaussianBlur stdDeviation="2" result="blur"/>
      <feComposite in="SourceGraphic" in2="blur" operator="over"/>
    </filter>
  </defs>
  
  <!-- Círculo base -->
  <circle cx="200" cy="200" r="190" stroke="url(#silverGradient)" stroke-width="10" fill="none"/>
  
  <!-- Detalhes decorativos simples -->
  <path d="M200 10 L210 30 L200 40 L190 30 Z" fill="#D1D5DB" filter="url(#glow)"/>
  <path d="M200 390 L210 370 L200 360 L190 370 Z" fill="#D1D5DB" filter="url(#glow)"/>
  <path d="M10 200 L30 210 L40 200 L30 190 Z" fill="#D1D5DB" filter="url(#glow)"/>
  <path d="M390 200 L370 210 L360 200 L370 190 Z" fill="#D1D5DB" filter="url(#glow)"/>
  
  <!-- Arcos decorativos -->
  <path d="M80 80 A170 170 0 0 1 320 80" stroke="url(#silverShine)" stroke-width="5" fill="none"/>
  <path d="M80 320 A170 170 0 0 0 320 320" stroke="url(#silverShine)" stroke-width="5" fill="none"/>
  
  <!-- Detalhes decorativos adicionais -->
  <circle cx="200" cy="40" r="8" fill="#D1D5DB" filter="url(#glow)"/>
  <circle cx="200" cy="360" r="8" fill="#D1D5DB" filter="url(#glow)"/>
  <circle cx="40" cy="200" r="8" fill="#D1D5DB" filter="url(#glow)"/>
  <circle cx="360" cy="200" r="8" fill="#D1D5DB" filter="url(#glow)"/>
  
  <!-- Emblema inferior -->
  <g transform="translate(175, 320)">
    <path d="M25 0 L45 10 L50 30 L25 40 L0 30 L5 10 Z" fill="#9CA3AF" stroke="#D1D5DB" stroke-width="1.5"/>
    <circle cx="25" cy="20" r="8" fill="#D1D5DB" stroke="#F9FAFB" stroke-width="1"/>
  </g>
</svg> 